<svg width="555" height="388" viewBox="0 0 555 388" xmlns="http://www.w3.org/2000/svg" xmlns:xlink="http://www.w3.org/1999/xlink" overflow="hidden"><defs><filter id="filter-4" x="-7.5%" y="-16.4%" width="115.1%" height="138.8%" filterUnits="objectBoundingBox" primitiveUnits="userSpaceOnUse"><feOffset in="SourceAlpha" result="shadowOffsetOuter1" dx="0" dy="4"/><feGaussianBlur in="shadowOffsetOuter1" result="shadowBlurOuter1" stdDeviation="8 8"/><feComposite in="shadowBlurOuter1" in2="SourceAlpha" result="shadowBlurOuter1" operator="out" k1="0" k2="0" k3="0" k4="0"/><feColorMatrix in="shadowBlurOuter1" type="matrix" values="0 0 0 0 0 0 0 0 0 0 0 0 0 0 0 0 0 0 0.09 0 "/></filter><mask x="0" y="0" width="70" height="78" id="mask-6" fill="#FFFFFF"><use width="100%" height="100%" xlink:href="#path-5"></use></mask><filter id="filter-8" x="-7.5%" y="-16.4%" width="115.1%" height="138.8%" filterUnits="objectBoundingBox" primitiveUnits="userSpaceOnUse"><feOffset in="SourceAlpha" result="shadowOffsetOuter1" dx="0" dy="4"/><feGaussianBlur in="shadowOffsetOuter1" result="shadowBlurOuter1" stdDeviation="8 8"/><feComposite in="shadowBlurOuter1" in2="SourceAlpha" result="shadowBlurOuter1" operator="out" k1="0" k2="0" k3="0" k4="0"/><feColorMatrix in="shadowBlurOuter1" type="matrix" values="0 0 0 0 0 0 0 0 0 0 0 0 0 0 0 0 0 0 0.09 0 "/></filter><mask x="0" y="0" width="70" height="78" id="mask-10" fill="#FFFFFF"><use width="100%" height="100%" xlink:href="#path-9"></use></mask><filter id="filter-12" x="-7.5%" y="-16.4%" width="115.1%" height="138.8%" filterUnits="objectBoundingBox" primitiveUnits="userSpaceOnUse"><feOffset in="SourceAlpha" result="shadowOffsetOuter1" dx="0" dy="4"/><feGaussianBlur in="shadowOffsetOuter1" result="shadowBlurOuter1" stdDeviation="8 8"/><feComposite in="shadowBlurOuter1" in2="SourceAlpha" result="shadowBlurOuter1" operator="out" k1="0" k2="0" k3="0" k4="0"/><feColorMatrix in="shadowBlurOuter1" type="matrix" values="0 0 0 0 0 0 0 0 0 0 0 0 0 0 0 0 0 0 0.09 0 "/></filter><mask x="0" y="0" width="70" height="78" id="mask-14" fill="#FFFFFF"><use width="100%" height="100%" xlink:href="#path-13"></use></mask><linearGradient x1="50%" y1="0%" x2="50%" y2="100%" id="linearGradient-15"><stop offset="0" stop-color="#FFFFFF" stop-opacity="0"/><stop offset="1" stop-color="#FFFFFF"/></linearGradient><rect x="0" y="0" width="555" height="388" id="path-1"/><rect x="0" y="0" rx="8" width="345" height="134" id="path-3"/><rect x="0" y="0" rx="8" width="70" height="78" id="path-5"/><rect x="0" y="0" rx="8" width="345" height="134" id="path-7"/><rect x="0" y="0" rx="8" width="70" height="78" id="path-9"/><rect x="0" y="96" rx="8" width="345" height="134" id="path-11"/><rect x="0" y="124" rx="8" width="70" height="78" id="path-13"/></defs><g id="March-Spring-Release" fill="none" fill-rule="evenodd"><g id="subscriptions"><mask id="mask-2" fill="#FFFFFF"><use width="100%" height="100%" xlink:href="#path-1"></use></mask><use width="100%" height="100%" xlink:href="#path-1" id="Mask" fill="#FFFFFF" fill-opacity="0.01"></use><g id="Group-66" mask="url(#mask-2)"><g transform="translate(140 18)"><g id="Group-50"><g id="Group-51"><g id="Group-50"><g id="Rectangle"><use width="100%" height="100%" xlink:href="#path-3" fill="#000000" filter="url(#filter-4)"></use><rect x="1" y="1" rx="8" width="343" height="132" stroke="#EBF2FE" stroke-width="2" fill="#FFFFFF"/></g><g id="Group-61" transform="translate(129 28)"><path d="M3.784 12 3.784 7.264 6.504 7.264C8.568 7.264 9.688 6.064 9.688 4.048 9.688 2.032 8.568 0.832 6.504 0.832L2.44 0.832 2.44 12 3.784 12ZM6.472 6.096 3.784 6.096 3.784 2 6.472 2C7.592 2 8.264 2.592 8.264 3.632L8.264 4.464C8.264 5.504 7.592 6.096 6.472 6.096ZM18.728 12 18.728 10.912 15.528 10.912 15.528 7.344C15.528 6.064 16.376 5.024 17.992 5.024L19.544 5.024 19.544 3.744 18.392 3.744C16.664 3.744 15.928 4.736 15.608 5.824L15.528 5.824 15.528 3.744 11.832 3.744 11.832 4.832 14.248 4.832 14.248 10.912 11.832 10.912 11.832 12 18.728 12ZM25 12.192C27.32 12.192 28.744 10.496 28.744 7.872 28.744 5.248 27.32 3.552 25 3.552 22.68 3.552 21.256 5.248 21.256 7.872 21.256 10.496 22.68 12.192 25 12.192ZM25 11.088C23.576 11.088 22.616 10.24 22.616 8.464L22.616 7.28C22.616 5.504 23.576 4.656 25 4.656 26.424 4.656 27.384 5.504 27.384 7.28L27.384 8.464C27.384 10.24 26.424 11.088 25 11.088ZM42.184 12 42.184 7.264 44.904 7.264C46.968 7.264 48.088 6.064 48.088 4.048 48.088 2.032 46.968 0.832 44.904 0.832L40.84 0.832 40.84 12 42.184 12ZM44.872 6.096 42.184 6.096 42.184 2 44.872 2C45.992 2 46.664 2.592 46.664 3.632L46.664 4.464C46.664 5.504 45.992 6.096 44.872 6.096ZM57.32 12 57.32 10.912 54.44 10.912 54.44 0.16 50.28 0.16 50.28 1.248 53.16 1.248 53.16 10.912 50.28 10.912 50.28 12 57.32 12ZM62.488 12.192C63.832 12.192 64.616 11.6 64.968 10.656L65.048 10.656C65.144 11.424 65.528 12 66.52 12L67.4 12 67.4 10.88 66.248 10.88 66.248 6.336C66.248 4.592 65.016 3.552 63.08 3.552 61.4 3.552 60.344 4.352 59.928 5.216L60.792 5.856C61.224 5.104 61.896 4.64 63 4.64 64.248 4.64 64.968 5.264 64.968 6.464L64.968 7.28 63.208 7.28C60.728 7.28 59.656 8.16 59.656 9.68 59.656 11.232 60.76 12.192 62.488 12.192ZM62.712 11.12C61.656 11.12 61 10.672 61 9.824L61 9.488C61 8.688 61.688 8.24 63.208 8.24L64.968 8.24 64.968 9.6C64.968 10.448 64.024 11.12 62.712 11.12ZM71.048 12 71.048 6.272C71.048 5.184 72.072 4.688 73.096 4.688 74.36 4.688 75.048 5.424 75.048 6.928L75.048 12 76.328 12 76.328 6.704C76.328 4.704 75.192 3.552 73.464 3.552 72.104 3.552 71.464 4.272 71.112 5.088L71.048 5.088 71.048 3.744 69.768 3.744 69.768 12 71.048 12ZM89.72 12 89.72 2.864 89.848 2.864 92.2 8.608 94.552 2.864 94.68 2.864 94.68 12 95.912 12 95.912 0.832 94.248 0.832 92.28 5.76 92.184 5.76 90.216 0.832 88.488 0.832 88.488 12 89.72 12ZM101.8 12.192C104.12 12.192 105.544 10.496 105.544 7.872 105.544 5.248 104.12 3.552 101.8 3.552 99.48 3.552 98.056 5.248 98.056 7.872 98.056 10.496 99.48 12.192 101.8 12.192ZM101.8 11.088C100.376 11.088 99.416 10.24 99.416 8.464L99.416 7.28C99.416 5.504 100.376 4.656 101.8 4.656 103.224 4.656 104.184 5.504 104.184 7.28L104.184 8.464C104.184 10.24 103.224 11.088 101.8 11.088ZM109.448 12 109.448 6.272C109.448 5.184 110.472 4.688 111.496 4.688 112.76 4.688 113.448 5.424 113.448 6.928L113.448 12 114.728 12 114.728 6.704C114.728 4.704 113.592 3.552 111.864 3.552 110.504 3.552 109.864 4.272 109.512 5.088L109.448 5.088 109.448 3.744 108.168 3.744 108.168 12 109.448 12ZM124.616 12 124.616 10.912 120.856 10.912 120.856 4.832 124.616 4.832 124.616 3.744 120.856 3.744 120.856 0.832 119.624 0.832 119.624 2.992C119.624 3.552 119.416 3.744 118.872 3.744L116.824 3.744 116.824 4.832 119.576 4.832 119.576 10.112C119.576 11.216 120.152 12 121.4 12L124.616 12ZM128.648 12 128.648 6.272C128.648 5.184 129.672 4.688 130.696 4.688 131.96 4.688 132.648 5.424 132.648 6.928L132.648 12 133.928 12 133.928 6.704C133.928 4.704 132.792 3.552 131.064 3.552 129.704 3.552 129.064 4.272 128.712 5.088L128.648 5.088 128.648 0.16 127.368 0.16 127.368 12 128.648 12ZM143.72 12 143.72 10.912 140.84 10.912 140.84 0.16 136.68 0.16 136.68 1.248 139.56 1.248 139.56 10.912 136.68 10.912 136.68 12 143.72 12ZM147.544 15.2C148.792 15.2 149.272 14.752 149.656 13.808L153.752 3.744 152.472 3.744 151.08 7.2 149.848 10.336 149.784 10.336 148.552 7.2 147.16 3.744 145.848 3.744 149.176 11.84 148.248 14.112 146.328 14.112 146.328 15.2 147.544 15.2Z" id="ProPlanMonthly" fill="#00000B" fill-rule="nonzero"/><path d="M6.456 40.808 6.456 39.176C8.616 39 9.832 37.8 9.832 35.944 9.832 34.44 9.112 33.192 6.92 32.824L6.44 32.744 6.44 28.824C7.496 28.936 8.2 29.416 8.776 30.184L9.784 29.464C8.984 28.376 7.928 27.768 6.456 27.656L6.456 26.024 5.464 26.024 5.464 27.656C3.448 27.8 2.2 28.888 2.2 30.68 2.2 32.136 2.904 33.416 5.112 33.784L5.48 33.848 5.48 38.024C4.36 37.912 3.544 37.384 2.776 36.424L1.8 37.224C2.568 38.296 3.688 39.064 5.464 39.176L5.464 40.808 6.456 40.808ZM5.48 32.584C4.056 32.296 3.496 31.72 3.496 30.68 3.496 29.576 4.216 28.936 5.48 28.808L5.48 32.584ZM6.44 38.008 6.44 34.008C7.928 34.264 8.536 34.824 8.536 35.96 8.536 37.128 7.784 37.864 6.44 38.008ZM15.32 39.192C17.704 39.192 19.128 37.672 19.128 35.496 19.128 33.336 17.704 32.056 15.752 32.056 14.568 32.056 13.96 32.52 13.416 33.272L13.304 33.272 13.624 29 18.616 29 18.616 27.832 12.536 27.832 12.136 33.976 13.272 34.136C13.752 33.608 14.264 33.192 15.32 33.192 16.872 33.192 17.736 34.072 17.736 35.544L17.736 35.672C17.736 37.128 16.888 38.024 15.352 38.024 13.976 38.024 13.368 37.4 12.776 36.52L11.768 37.288C12.456 38.248 13.432 39.192 15.32 39.192ZM24.728 39C26.552 37.832 28.776 35.24 28.776 31.928 28.776 29.272 27.336 27.64 24.984 27.64 22.712 27.64 21.224 29.144 21.224 31.336 21.224 33.448 22.616 34.776 24.568 34.776 25.96 34.776 26.776 34.088 27.32 33.176L27.4 33.208C26.776 35.8 25.432 37.256 23 39L24.728 39ZM25 33.672C23.48 33.672 22.584 32.792 22.584 31.288L22.584 31.16C22.584 29.656 23.48 28.776 25 28.776 26.52 28.776 27.416 29.656 27.416 31.16L27.416 31.288C27.416 32.792 26.52 33.672 25 33.672ZM34.328 39C36.152 37.832 38.376 35.24 38.376 31.928 38.376 29.272 36.936 27.64 34.584 27.64 32.312 27.64 30.824 29.144 30.824 31.336 30.824 33.448 32.216 34.776 34.168 34.776 35.56 34.776 36.376 34.088 36.92 33.176L37 33.208C36.376 35.8 35.032 37.256 32.6 39L34.328 39ZM34.6 33.672C33.08 33.672 32.184 32.792 32.184 31.288L32.184 31.16C32.184 29.656 33.08 28.776 34.6 28.776 36.12 28.776 37.016 29.656 37.016 31.16L37.016 31.288C37.016 32.792 36.12 33.672 34.6 33.672ZM44.2 39.144C45.064 39.144 45.384 38.728 45.384 38.184L45.384 37.896C45.384 37.352 45.064 36.936 44.2 36.936 43.336 36.936 43.016 37.352 43.016 37.896L43.016 38.184C43.016 38.728 43.336 39.144 44.2 39.144ZM53.8 39.192C56.52 39.192 57.704 37.064 57.704 33.416 57.704 29.768 56.52 27.64 53.8 27.64 51.08 27.64 49.896 29.768 49.896 33.416 49.896 37.064 51.08 39.192 53.8 39.192ZM53.8 38.024C52.008 38.024 51.288 36.568 51.288 34.328L51.288 32.504C51.288 30.264 52.008 28.808 53.8 28.808 55.592 28.808 56.312 30.264 56.312 32.504L56.312 34.328C56.312 36.568 55.592 38.024 53.8 38.024ZM53.8 34.36C54.536 34.36 54.792 34.024 54.792 33.592L54.792 33.24C54.792 32.808 54.536 32.472 53.8 32.472 53.064 32.472 52.808 32.808 52.808 33.24L52.808 33.592C52.808 34.024 53.064 34.36 53.8 34.36ZM61.192 41.208 66.76 26.84 65.608 26.84 60.04 41.208 61.192 41.208ZM70.248 39 70.248 32.936C70.248 32.056 70.728 31.608 71.416 31.608 72.168 31.608 72.408 32.072 72.408 33.48L72.408 39 73.592 39 73.592 32.936C73.592 32.056 74.072 31.608 74.744 31.608 75.512 31.608 75.752 32.072 75.752 33.48L75.752 39 76.936 39 76.936 33.272C76.936 31.528 76.584 30.552 75.24 30.552 74.264 30.552 73.752 31.096 73.448 31.848L73.4 31.848C73.304 31.08 72.84 30.552 71.896 30.552 70.984 30.552 70.568 31.064 70.312 31.704L70.248 31.704 70.248 30.744 69.064 30.744 69.064 39 70.248 39ZM82.6 39.192C84.92 39.192 86.344 37.496 86.344 34.872 86.344 32.248 84.92 30.552 82.6 30.552 80.28 30.552 78.856 32.248 78.856 34.872 78.856 37.496 80.28 39.192 82.6 39.192ZM82.6 38.088C81.176 38.088 80.216 37.24 80.216 35.464L80.216 34.28C80.216 32.504 81.176 31.656 82.6 31.656 84.024 31.656 84.984 32.504 84.984 34.28L84.984 35.464C84.984 37.24 84.024 38.088 82.6 38.088ZM90.248 39 90.248 33.272C90.248 32.184 91.272 31.688 92.296 31.688 93.56 31.688 94.248 32.424 94.248 33.928L94.248 39 95.528 39 95.528 33.704C95.528 31.704 94.392 30.552 92.664 30.552 91.304 30.552 90.664 31.272 90.312 32.088L90.248 32.088 90.248 30.744 88.968 30.744 88.968 39 90.248 39ZM105.416 39 105.416 37.912 101.656 37.912 101.656 31.832 105.416 31.832 105.416 30.744 101.656 30.744 101.656 27.832 100.424 27.832 100.424 29.992C100.424 30.552 100.216 30.744 99.672 30.744L97.624 30.744 97.624 31.832 100.376 31.832 100.376 37.112C100.376 38.216 100.952 39 102.2 39L105.416 39ZM109.448 39 109.448 33.272C109.448 32.184 110.472 31.688 111.496 31.688 112.76 31.688 113.448 32.424 113.448 33.928L113.448 39 114.728 39 114.728 33.704C114.728 31.704 113.592 30.552 111.864 30.552 110.504 30.552 109.864 31.272 109.512 32.088L109.448 32.088 109.448 27.16 108.168 27.16 108.168 39 109.448 39Z" id="$599.0/month" fill="#00000B" fill-rule="nonzero"/><g id="Group-47" transform="matrix(1 0 0 1 0 55)"><g id="Group-44"><rect x="0" y="0" rx="13.5" width="87" height="27" id="Rectangle" fill="#FFDD4D"/><g id="Group-57" fill="#00000A" fill-rule="nonzero" transform="translate(10 4)"><g id="pause" transform="matrix(1 0 0 1 0 5)"><path d="M5.71429 10 8.57143 10 8.57143 0 5.71429 0M0 10 2.85714 10 2.85714 0 0 0 0 10Z" id="Shape"/></g><path d="M19.436 14 19.436 9.856 21.816 9.856C23.622 9.856 24.602 8.806 24.602 7.042 24.602 5.278 23.622 4.228 21.816 4.228L18.26 4.228 18.26 14 19.436 14ZM21.788 8.834 19.436 8.834 19.436 5.25 21.788 5.25C22.768 5.25 23.356 5.768 23.356 6.678L23.356 7.406C23.356 8.316 22.768 8.834 21.788 8.834ZM28.802 14.168C29.978 14.168 30.664 13.65 30.972 12.824L31.042 12.824C31.126 13.496 31.462 14 32.33 14L33.1 14 33.1 13.02 32.092 13.02 32.092 9.044C32.092 7.518 31.014 6.608 29.32 6.608 27.85 6.608 26.926 7.308 26.562 8.064L27.318 8.624C27.696 7.966 28.284 7.56 29.25 7.56 30.342 7.56 30.972 8.106 30.972 9.156L30.972 9.87 29.432 9.87C27.262 9.87 26.324 10.64 26.324 11.97 26.324 13.328 27.29 14.168 28.802 14.168ZM28.998 13.23C28.074 13.23 27.5 12.838 27.5 12.096L27.5 11.802C27.5 11.102 28.102 10.71 29.432 10.71L30.972 10.71 30.972 11.9C30.972 12.642 30.146 13.23 28.998 13.23ZM37.594 14.168C38.784 14.168 39.344 13.538 39.652 12.824L39.708 12.824 39.708 14 40.828 14 40.828 6.776 39.708 6.776 39.708 11.788C39.708 12.74 38.812 13.174 37.916 13.174 36.81 13.174 36.208 12.53 36.208 11.214L36.208 6.776 35.088 6.776 35.088 11.41C35.088 13.16 36.082 14.168 37.594 14.168ZM46.484 14.168C48.332 14.168 49.536 13.342 49.536 11.914 49.536 10.346 48.094 10.066 47.058 9.912L45.924 9.744C45.28 9.646 44.65 9.45 44.65 8.694 44.65 7.952 45.28 7.546 46.414 7.546 47.688 7.546 48.332 8.05 48.668 8.456L49.396 7.77C48.71 7.042 47.758 6.608 46.456 6.608 44.776 6.608 43.544 7.322 43.544 8.764 43.544 10.332 45 10.612 46.022 10.766L47.156 10.934C47.814 11.032 48.43 11.228 48.43 11.984 48.43 12.838 47.632 13.23 46.512 13.23 45.364 13.23 44.58 12.824 43.894 12.096L43.138 12.754C43.894 13.608 44.972 14.168 46.484 14.168ZM54.926 14.168C56.354 14.168 57.39 13.468 57.824 12.502L56.998 11.942C56.62 12.726 55.892 13.202 54.926 13.202 53.568 13.202 52.714 12.278 52.714 11.004L52.714 10.668 58.062 10.668 58.062 10.136C58.062 8.092 56.802 6.608 54.856 6.608 52.896 6.608 51.538 8.092 51.538 10.402 51.538 12.684 52.854 14.168 54.926 14.168ZM56.858 9.828 52.714 9.828 52.714 9.73C52.714 8.47 53.624 7.532 54.856 7.532 56.046 7.532 56.858 8.4 56.858 9.674L56.858 9.828ZM62.668 14.168C63.676 14.168 64.432 13.706 64.894 12.824L64.95 12.824 64.95 14 66.07 14 66.07 3.64 64.95 3.64 64.95 7.952 64.894 7.952C64.432 7.07 63.676 6.608 62.668 6.608 60.904 6.608 59.84 8.022 59.84 10.388 59.84 12.754 60.904 14.168 62.668 14.168ZM63.102 13.174C61.8 13.174 61.044 12.306 61.044 11.004L61.044 9.772C61.044 8.47 61.8 7.602 63.102 7.602 64.096 7.602 64.95 8.12 64.95 9.086L64.95 11.69C64.95 12.656 64.096 13.174 63.102 13.174Z" id="Paused"/></g></g></g></g><g id="Group-58" transform="translate(36 28)"><use width="100%" height="100%" xlink:href="#path-5" id="Rectangle" stroke="#B6C8DE" stroke-width="2" stroke-dasharray="3 3" fill="#FFFFFF" mask="url(#mask-6)"></use><g id="Group-45" fill="#00000A" fill-rule="nonzero" transform="translate(13 26)"><path d="M3.094 10.36 3.094 10.136 1.652 10.136 2.506 7.504 5.726 7.504 6.832 10.136 5.684 10.136 5.684 10.36 10.836 10.36 10.836 10.136 10.192 10.136 5.754 1.63425e-13 5.026 1.63425e-13 0.574 10.136-4.26326e-14 10.136-4.26326e-14 10.36 3.094 10.36ZM5.614 7.252 2.576 7.252 3.892 3.192 5.614 7.252ZM15.82 10.64C17.514 10.64 19.04 9.772 19.712 8.568L19.698 8.554C19.432 8.68 18.942 8.736 18.55 8.736 15.568 8.736 12.656 5.81 12.656 2.24 12.656 1.12 13.132 0.644 13.748 0.644 14.742 0.644 15.862 1.582 17.99 5.74L18.004 5.74 19.236 0.854C18.214 0.322 17.01 1.63425e-13 15.568 1.63425e-13 12.502 1.63425e-13 10.486 1.974 10.486 4.984 10.486 8.288 12.6 10.64 15.82 10.64ZM26.684 10.43 29.638 1.554 30.744 10.136 29.344 10.136 29.344 10.36 34.902 10.36 34.902 10.136 33.838 10.136 32.69 1.036 33.95 0.28 29.218 0.28 27.664 6.706 25.214 0.28 20.93 0.28 22.19 1.036 22.19 1.05 20.958 10.136 20.062 10.136 20.062 10.36 23.464 10.36 23.464 10.136 22.022 10.136 22.4 1.54 25.914 10.43 26.684 10.43ZM44.1 10.36 44.1 6.86 44.086 6.86C42.77 9.296 41.356 10.108 39.704 10.136L39.704 5.18C40.614 5.222 41.552 5.95 42.084 7.042L42.098 7.042 42.098 3.136 42.084 3.136C41.566 4.2 40.586 4.942 39.704 4.984L39.704 0.504C41.356 0.518 42.77 1.372 44.086 3.78L44.1 3.78 44.1 0.28 35.378 0.28 36.624 1.036 36.624 10.136 35.504 10.136 35.504 10.36 44.1 10.36Z" id="ACME"/><path d="M13.29 23.5C14.214 23.5 14.956 23.164 15.488 22.688L15.222 22.198C14.802 22.436 14.452 22.534 14.004 22.534 13.038 22.534 12.128 21.75 12.128 20 12.128 18.754 12.506 18.082 13.22 18.082 13.514 18.082 13.738 18.194 13.99 18.404L15.054 19.832 15.236 19.832 15.236 17.578C14.704 17.382 14.144 17.27 13.598 17.27 11.638 17.27 10.42 18.698 10.42 20.532 10.42 22.324 11.54 23.5 13.29 23.5ZM19.002 23.5C20.78 23.5 22.054 22.212 22.054 20.308 22.054 18.404 20.808 17.27 19.17 17.27 17.35 17.27 16.118 18.684 16.118 20.532 16.118 22.324 17.294 23.5 19.002 23.5ZM19.282 22.674C18.442 22.674 17.826 21.554 17.826 19.958 17.826 18.81 18.232 18.138 18.89 18.138 19.73 18.138 20.346 19.258 20.346 20.854 20.346 22.002 19.94 22.674 19.282 22.674ZM26.1 23.36 26.1 22.464 25.26 22.464 25.19 22.394 25.19 18.936C25.344 18.922 25.498 18.908 25.652 18.908 26.282 18.908 26.856 18.992 27.402 19.146L27.402 17.34C27.262 17.284 27.15 17.27 26.996 17.27 26.464 17.27 25.834 17.676 25.148 18.306L24.966 17.298 24.784 17.2 22.684 18.278 22.684 18.46 23.58 19.006 23.58 22.394 23.51 22.464 22.88 22.464 22.88 23.36 26.1 23.36ZM31.126 26.58 31.126 25.684 30.286 25.684 30.216 25.614 30.216 23.29C30.524 23.43 30.874 23.5 31.266 23.5 33.03 23.5 34.29 22.058 34.29 20.21 34.29 18.474 33.38 17.27 32.148 17.27 31.434 17.27 30.846 17.648 30.174 18.166L29.992 17.298 29.81 17.2 27.71 18.278 27.71 18.46 28.606 19.006 28.606 25.614 28.536 25.684 27.906 25.684 27.906 26.58 31.126 26.58ZM31.322 22.66C30.846 22.66 30.454 22.408 30.216 21.988L30.216 18.6C30.58 18.516 30.86 18.474 31.21 18.474 32.036 18.474 32.582 19.188 32.582 20.588 32.582 21.862 32.162 22.66 31.322 22.66Z" id="corp" opacity="0.4"/></g></g></g></g></g><g id="Group-50-Copy" transform="matrix(1 0 0 1 0 146)"><g id="Group-51"><g id="Group-50"><g id="Rectangle"><use width="100%" height="100%" xlink:href="#path-7" fill="#000000" filter="url(#filter-8)"></use><rect x="1" y="1" rx="8" width="343" height="132" stroke="#EBF2FE" stroke-width="2" fill="#FFFFFF"/></g><g id="Group-61" transform="translate(129 28)"><path d="M6.68 12C8.408 12 9.688 10.592 9.688 8.784 9.688 7.232 8.776 6.448 7.528 6.16L7.528 6.112C8.552 5.792 9.272 5.04 9.272 3.712 9.272 1.968 8.104 0.832 6.2 0.832L2.408 0.832 2.408 12 6.68 12ZM6.056 5.68 3.752 5.68 3.752 2 6.056 2C7.176 2 7.864 2.512 7.864 3.536L7.864 4.16C7.864 5.184 7.176 5.68 6.056 5.68ZM6.28 10.832 3.752 10.832 3.752 6.784 6.28 6.784C7.512 6.784 8.264 7.36 8.264 8.48L8.264 9.136C8.264 10.272 7.512 10.832 6.28 10.832ZM14.488 12.192C15.832 12.192 16.616 11.6 16.968 10.656L17.048 10.656C17.144 11.424 17.528 12 18.52 12L19.4 12 19.4 10.88 18.248 10.88 18.248 6.336C18.248 4.592 17.016 3.552 15.08 3.552 13.4 3.552 12.344 4.352 11.928 5.216L12.792 5.856C13.224 5.104 13.896 4.64 15 4.64 16.248 4.64 16.968 5.264 16.968 6.464L16.968 7.28 15.208 7.28C12.728 7.28 11.656 8.16 11.656 9.68 11.656 11.232 12.76 12.192 14.488 12.192ZM14.712 11.12C13.656 11.12 13 10.672 13 9.824L13 9.488C13 8.688 13.688 8.24 15.208 8.24L16.968 8.24 16.968 9.6C16.968 10.448 16.024 11.12 14.712 11.12ZM25.096 12.192C27.208 12.192 28.584 11.248 28.584 9.616 28.584 7.824 26.936 7.504 25.752 7.328L24.456 7.136C23.72 7.024 23 6.8 23 5.936 23 5.088 23.72 4.624 25.016 4.624 26.472 4.624 27.208 5.2 27.592 5.664L28.424 4.88C27.64 4.048 26.552 3.552 25.064 3.552 23.144 3.552 21.736 4.368 21.736 6.016 21.736 7.808 23.4 8.128 24.568 8.304L25.864 8.496C26.616 8.608 27.32 8.832 27.32 9.696 27.32 10.672 26.408 11.12 25.128 11.12 23.816 11.12 22.92 10.656 22.136 9.824L21.272 10.576C22.136 11.552 23.368 12.192 25.096 12.192ZM35.112 1.92C35.848 1.92 36.12 1.568 36.12 1.104L36.12 0.848C36.12 0.384 35.848 0.032 35.112 0.032 34.376 0.032 34.104 0.384 34.104 0.848L34.104 1.104C34.104 1.568 34.376 1.92 35.112 1.92ZM38.536 12 38.536 10.912 35.752 10.912 35.752 3.744 31.496 3.744 31.496 4.832 34.472 4.832 34.472 10.912 31.496 10.912 31.496 12 38.536 12ZM44.488 12.192C46.136 12.192 47.176 11.376 47.656 10.272L46.744 9.648C46.328 10.544 45.608 11.088 44.504 11.088 42.952 11.088 42.12 10.032 42.12 8.576L42.12 7.168C42.12 5.712 42.968 4.656 44.472 4.656 45.496 4.656 46.2 5.152 46.504 6L47.528 5.456C47.064 4.336 46.072 3.552 44.472 3.552 42.136 3.552 40.744 5.248 40.744 7.872 40.744 10.48 42.12 12.192 44.488 12.192ZM60.92 12 60.92 2.864 61.048 2.864 63.4 8.608 65.752 2.864 65.88 2.864 65.88 12 67.112 12 67.112 0.832 65.448 0.832 63.48 5.76 63.384 5.76 61.416 0.832 59.688 0.832 59.688 12 60.92 12ZM73 12.192C75.32 12.192 76.744 10.496 76.744 7.872 76.744 5.248 75.32 3.552 73 3.552 70.68 3.552 69.256 5.248 69.256 7.872 69.256 10.496 70.68 12.192 73 12.192ZM73 11.088C71.576 11.088 70.616 10.24 70.616 8.464L70.616 7.28C70.616 5.504 71.576 4.656 73 4.656 74.424 4.656 75.384 5.504 75.384 7.28L75.384 8.464C75.384 10.24 74.424 11.088 73 11.088ZM80.648 12 80.648 6.272C80.648 5.184 81.672 4.688 82.696 4.688 83.96 4.688 84.648 5.424 84.648 6.928L84.648 12 85.928 12 85.928 6.704C85.928 4.704 84.792 3.552 83.064 3.552 81.704 3.552 81.064 4.272 80.712 5.088L80.648 5.088 80.648 3.744 79.368 3.744 79.368 12 80.648 12ZM95.816 12 95.816 10.912 92.056 10.912 92.056 4.832 95.816 4.832 95.816 3.744 92.056 3.744 92.056 0.832 90.824 0.832 90.824 2.992C90.824 3.552 90.616 3.744 90.072 3.744L88.024 3.744 88.024 4.832 90.776 4.832 90.776 10.112C90.776 11.216 91.352 12 92.6 12L95.816 12ZM99.848 12 99.848 6.272C99.848 5.184 100.872 4.688 101.896 4.688 103.16 4.688 103.848 5.424 103.848 6.928L103.848 12 105.128 12 105.128 6.704C105.128 4.704 103.992 3.552 102.264 3.552 100.904 3.552 100.264 4.272 99.912 5.088L99.848 5.088 99.848 0.16 98.568 0.16 98.568 12 99.848 12ZM114.92 12 114.92 10.912 112.04 10.912 112.04 0.16 107.88 0.16 107.88 1.248 110.76 1.248 110.76 10.912 107.88 10.912 107.88 12 114.92 12ZM118.744 15.2C119.992 15.2 120.472 14.752 120.856 13.808L124.952 3.744 123.672 3.744 122.28 7.2 121.048 10.336 120.984 10.336 119.752 7.2 118.36 3.744 117.048 3.744 120.376 11.84 119.448 14.112 117.528 14.112 117.528 15.2 118.744 15.2Z" id="BasicMonthly" fill="#00000B" fill-rule="nonzero"/><path d="M6.456 40.808 6.456 39.176C8.616 39 9.832 37.8 9.832 35.944 9.832 34.44 9.112 33.192 6.92 32.824L6.44 32.744 6.44 28.824C7.496 28.936 8.2 29.416 8.776 30.184L9.784 29.464C8.984 28.376 7.928 27.768 6.456 27.656L6.456 26.024 5.464 26.024 5.464 27.656C3.448 27.8 2.2 28.888 2.2 30.68 2.2 32.136 2.904 33.416 5.112 33.784L5.48 33.848 5.48 38.024C4.36 37.912 3.544 37.384 2.776 36.424L1.8 37.224C2.568 38.296 3.688 39.064 5.464 39.176L5.464 40.808 6.456 40.808ZM5.48 32.584C4.056 32.296 3.496 31.72 3.496 30.68 3.496 29.576 4.216 28.936 5.48 28.808L5.48 32.584ZM6.44 38.008 6.44 34.008C7.928 34.264 8.536 34.824 8.536 35.96 8.536 37.128 7.784 37.864 6.44 38.008ZM19.448 39 19.448 37.832 16.504 37.832 16.504 27.832 14.408 27.832 11.448 30.6 12.232 31.448 15.048 28.824 15.16 28.824 15.16 37.832 11.96 37.832 11.96 39 19.448 39ZM24.728 39C26.552 37.832 28.776 35.24 28.776 31.928 28.776 29.272 27.336 27.64 24.984 27.64 22.712 27.64 21.224 29.144 21.224 31.336 21.224 33.448 22.616 34.776 24.568 34.776 25.96 34.776 26.776 34.088 27.32 33.176L27.4 33.208C26.776 35.8 25.432 37.256 23 39L24.728 39ZM25 33.672C23.48 33.672 22.584 32.792 22.584 31.288L22.584 31.16C22.584 29.656 23.48 28.776 25 28.776 26.52 28.776 27.416 29.656 27.416 31.16L27.416 31.288C27.416 32.792 26.52 33.672 25 33.672ZM34.328 39C36.152 37.832 38.376 35.24 38.376 31.928 38.376 29.272 36.936 27.64 34.584 27.64 32.312 27.64 30.824 29.144 30.824 31.336 30.824 33.448 32.216 34.776 34.168 34.776 35.56 34.776 36.376 34.088 36.92 33.176L37 33.208C36.376 35.8 35.032 37.256 32.6 39L34.328 39ZM34.6 33.672C33.08 33.672 32.184 32.792 32.184 31.288L32.184 31.16C32.184 29.656 33.08 28.776 34.6 28.776 36.12 28.776 37.016 29.656 37.016 31.16L37.016 31.288C37.016 32.792 36.12 33.672 34.6 33.672ZM44.2 39.144C45.064 39.144 45.384 38.728 45.384 38.184L45.384 37.896C45.384 37.352 45.064 36.936 44.2 36.936 43.336 36.936 43.016 37.352 43.016 37.896L43.016 38.184C43.016 38.728 43.336 39.144 44.2 39.144ZM53.8 39.192C56.52 39.192 57.704 37.064 57.704 33.416 57.704 29.768 56.52 27.64 53.8 27.64 51.08 27.64 49.896 29.768 49.896 33.416 49.896 37.064 51.08 39.192 53.8 39.192ZM53.8 38.024C52.008 38.024 51.288 36.568 51.288 34.328L51.288 32.504C51.288 30.264 52.008 28.808 53.8 28.808 55.592 28.808 56.312 30.264 56.312 32.504L56.312 34.328C56.312 36.568 55.592 38.024 53.8 38.024ZM53.8 34.36C54.536 34.36 54.792 34.024 54.792 33.592L54.792 33.24C54.792 32.808 54.536 32.472 53.8 32.472 53.064 32.472 52.808 32.808 52.808 33.24L52.808 33.592C52.808 34.024 53.064 34.36 53.8 34.36ZM61.192 41.208 66.76 26.84 65.608 26.84 60.04 41.208 61.192 41.208ZM70.248 39 70.248 32.936C70.248 32.056 70.728 31.608 71.416 31.608 72.168 31.608 72.408 32.072 72.408 33.48L72.408 39 73.592 39 73.592 32.936C73.592 32.056 74.072 31.608 74.744 31.608 75.512 31.608 75.752 32.072 75.752 33.48L75.752 39 76.936 39 76.936 33.272C76.936 31.528 76.584 30.552 75.24 30.552 74.264 30.552 73.752 31.096 73.448 31.848L73.4 31.848C73.304 31.08 72.84 30.552 71.896 30.552 70.984 30.552 70.568 31.064 70.312 31.704L70.248 31.704 70.248 30.744 69.064 30.744 69.064 39 70.248 39ZM82.6 39.192C84.92 39.192 86.344 37.496 86.344 34.872 86.344 32.248 84.92 30.552 82.6 30.552 80.28 30.552 78.856 32.248 78.856 34.872 78.856 37.496 80.28 39.192 82.6 39.192ZM82.6 38.088C81.176 38.088 80.216 37.24 80.216 35.464L80.216 34.28C80.216 32.504 81.176 31.656 82.6 31.656 84.024 31.656 84.984 32.504 84.984 34.28L84.984 35.464C84.984 37.24 84.024 38.088 82.6 38.088ZM90.248 39 90.248 33.272C90.248 32.184 91.272 31.688 92.296 31.688 93.56 31.688 94.248 32.424 94.248 33.928L94.248 39 95.528 39 95.528 33.704C95.528 31.704 94.392 30.552 92.664 30.552 91.304 30.552 90.664 31.272 90.312 32.088L90.248 32.088 90.248 30.744 88.968 30.744 88.968 39 90.248 39ZM105.416 39 105.416 37.912 101.656 37.912 101.656 31.832 105.416 31.832 105.416 30.744 101.656 30.744 101.656 27.832 100.424 27.832 100.424 29.992C100.424 30.552 100.216 30.744 99.672 30.744L97.624 30.744 97.624 31.832 100.376 31.832 100.376 37.112C100.376 38.216 100.952 39 102.2 39L105.416 39ZM109.448 39 109.448 33.272C109.448 32.184 110.472 31.688 111.496 31.688 112.76 31.688 113.448 32.424 113.448 33.928L113.448 39 114.728 39 114.728 33.704C114.728 31.704 113.592 30.552 111.864 30.552 110.504 30.552 109.864 31.272 109.512 32.088L109.448 32.088 109.448 27.16 108.168 27.16 108.168 39 109.448 39Z" id="$199.0/month" fill="#00000B" fill-rule="nonzero"/><g id="Group-47" transform="matrix(1 0 0 1 0 55)"><g id="Group-44"><rect x="0" y="0" rx="13.5" width="87" height="27" id="Rectangle" fill="#34CE9D"/><g id="Group-57" fill="#FFFFFF" fill-rule="nonzero" transform="translate(11 4)"><g id="pause" transform="matrix(1 0 0 1 0 4)"><g id="play"><path d="M0 1.82167 0 9.17833C-7.09521e-16 9.73061 0.447715 10.1783 1 10.1783 1.19018 10.1783 1.37642 10.1241 1.53688 10.022L7.3171 6.34366C7.78304 6.04715 7.9204 5.42907 7.62389 4.96312 7.54531 4.83964 7.44058 4.73492 7.3171 4.65634L1.53688 0.978012C1.07093 0.681504 0.452847 0.818856 0.156339 1.2848 0.0542334 1.44525 -2.32908e-17 1.63149 0 1.82167Z" id="Path"/></g></g><path d="M17.652 14 18.478 11.214 21.908 11.214 22.734 14 23.98 14 20.984 4.228 19.43 4.228 16.434 14 17.652 14ZM21.628 10.192 18.758 10.192 20.13 5.474 20.256 5.474 21.628 10.192ZM28.852 14.168C30.294 14.168 31.204 13.454 31.624 12.488L30.826 11.942C30.462 12.726 29.832 13.202 28.866 13.202 27.508 13.202 26.78 12.278 26.78 11.004L26.78 9.772C26.78 8.498 27.522 7.574 28.838 7.574 29.734 7.574 30.35 8.008 30.616 8.75L31.512 8.274C31.106 7.294 30.238 6.608 28.838 6.608 26.794 6.608 25.576 8.092 25.576 10.388 25.576 12.67 26.78 14.168 28.852 14.168ZM40.164 14 40.164 13.048 36.874 13.048 36.874 7.728 40.164 7.728 40.164 6.776 36.874 6.776 36.874 4.228 35.796 4.228 35.796 6.118C35.796 6.608 35.614 6.776 35.138 6.776L33.346 6.776 33.346 7.728 35.754 7.728 35.754 12.348C35.754 13.314 36.258 14 37.35 14L40.164 14ZM45.848 5.18C46.492 5.18 46.73 4.872 46.73 4.466L46.73 4.242C46.73 3.836 46.492 3.528 45.848 3.528 45.204 3.528 44.966 3.836 44.966 4.242L44.966 4.466C44.966 4.872 45.204 5.18 45.848 5.18ZM48.844 14 48.844 13.048 46.408 13.048 46.408 6.776 42.684 6.776 42.684 7.728 45.288 7.728 45.288 13.048 42.684 13.048 42.684 14 48.844 14ZM54.514 14 57.104 6.776 55.998 6.776 54.962 9.8 53.842 13.062 53.786 13.062 52.666 9.8 51.63 6.776 50.496 6.776 53.086 14 54.514 14ZM62.326 14.168C63.754 14.168 64.79 13.468 65.224 12.502L64.398 11.942C64.02 12.726 63.292 13.202 62.326 13.202 60.968 13.202 60.114 12.278 60.114 11.004L60.114 10.668 65.462 10.668 65.462 10.136C65.462 8.092 64.202 6.608 62.256 6.608 60.296 6.608 58.938 8.092 58.938 10.402 58.938 12.684 60.254 14.168 62.326 14.168ZM64.258 9.828 60.114 9.828 60.114 9.73C60.114 8.47 61.024 7.532 62.256 7.532 63.446 7.532 64.258 8.4 64.258 9.674L64.258 9.828Z" id="Active"/></g></g></g></g><g id="Group-58" stroke="#B6C8DE" stroke-width="2" stroke-dasharray="3 3" fill="#FFFFFF" transform="translate(36 28)"><use width="100%" height="100%" xlink:href="#path-9" id="Rectangle" mask="url(#mask-10)"></use></g></g></g></g><g id="Group-50-Copy-2" transform="matrix(1 0 0 1 0 196)"><g id="Group-51"><g id="Group-50"><g id="Rectangle"><use width="100%" height="100%" xlink:href="#path-11" fill="#000000" filter="url(#filter-12)"></use><rect x="1" y="97" rx="8" width="343" height="132" stroke="#EBF2FE" stroke-width="2" fill="#FFFFFF"/></g><g id="Group-61" fill="#00000B" fill-rule="nonzero" transform="translate(129 124)"><path d="M3.784 12 3.784 7.264 6.504 7.264C8.568 7.264 9.688 6.064 9.688 4.048 9.688 2.032 8.568 0.832 6.504 0.832L2.44 0.832 2.44 12 3.784 12ZM6.472 6.096 3.784 6.096 3.784 2 6.472 2C7.592 2 8.264 2.592 8.264 3.632L8.264 4.464C8.264 5.504 7.592 6.096 6.472 6.096ZM18.728 12 18.728 10.912 15.528 10.912 15.528 7.344C15.528 6.064 16.376 5.024 17.992 5.024L19.544 5.024 19.544 3.744 18.392 3.744C16.664 3.744 15.928 4.736 15.608 5.824L15.528 5.824 15.528 3.744 11.832 3.744 11.832 4.832 14.248 4.832 14.248 10.912 11.832 10.912 11.832 12 18.728 12ZM25.144 12.192C26.776 12.192 27.96 11.392 28.456 10.288L27.512 9.648C27.08 10.544 26.248 11.088 25.144 11.088 23.592 11.088 22.616 10.032 22.616 8.576L22.616 8.192 28.728 8.192 28.728 7.584C28.728 5.248 27.288 3.552 25.064 3.552 22.824 3.552 21.272 5.248 21.272 7.888 21.272 10.496 22.776 12.192 25.144 12.192ZM27.352 7.232 22.616 7.232 22.616 7.12C22.616 5.68 23.656 4.608 25.064 4.608 26.424 4.608 27.352 5.6 27.352 7.056L27.352 7.232ZM31.848 12 31.848 5.936C31.848 5.056 32.328 4.608 33.016 4.608 33.768 4.608 34.008 5.072 34.008 6.48L34.008 12 35.192 12 35.192 5.936C35.192 5.056 35.672 4.608 36.344 4.608 37.112 4.608 37.352 5.072 37.352 6.48L37.352 12 38.536 12 38.536 6.272C38.536 4.528 38.184 3.552 36.84 3.552 35.864 3.552 35.352 4.096 35.048 4.848L35 4.848C34.904 4.08 34.44 3.552 33.496 3.552 32.584 3.552 32.168 4.064 31.912 4.704L31.848 4.704 31.848 3.744 30.664 3.744 30.664 12 31.848 12ZM44.712 1.92C45.448 1.92 45.72 1.568 45.72 1.104L45.72 0.848C45.72 0.384 45.448 0.032 44.712 0.032 43.976 0.032 43.704 0.384 43.704 0.848L43.704 1.104C43.704 1.568 43.976 1.92 44.712 1.92ZM48.136 12 48.136 10.912 45.352 10.912 45.352 3.744 41.096 3.744 41.096 4.832 44.072 4.832 44.072 10.912 41.096 10.912 41.096 12 48.136 12ZM53.336 12.192C54.696 12.192 55.336 11.472 55.688 10.656L55.752 10.656 55.752 12 57.032 12 57.032 3.744 55.752 3.744 55.752 9.472C55.752 10.56 54.728 11.056 53.704 11.056 52.44 11.056 51.752 10.32 51.752 8.816L51.752 3.744 50.472 3.744 50.472 9.04C50.472 11.04 51.608 12.192 53.336 12.192ZM60.648 12 60.648 5.936C60.648 5.056 61.128 4.608 61.816 4.608 62.568 4.608 62.808 5.072 62.808 6.48L62.808 12 63.992 12 63.992 5.936C63.992 5.056 64.472 4.608 65.144 4.608 65.912 4.608 66.152 5.072 66.152 6.48L66.152 12 67.336 12 67.336 6.272C67.336 4.528 66.984 3.552 65.64 3.552 64.664 3.552 64.152 4.096 63.848 4.848L63.8 4.848C63.704 4.08 63.24 3.552 62.296 3.552 61.384 3.552 60.968 4.064 60.712 4.704L60.648 4.704 60.648 3.744 59.464 3.744 59.464 12 60.648 12ZM79.688 12 80.632 8.816 84.552 8.816 85.496 12 86.92 12 83.496 0.832 81.72 0.832 78.296 12 79.688 12ZM84.232 7.648 80.952 7.648 82.52 2.256 82.664 2.256 84.232 7.648ZM90.248 12 90.248 6.272C90.248 5.184 91.272 4.688 92.296 4.688 93.56 4.688 94.248 5.424 94.248 6.928L94.248 12 95.528 12 95.528 6.704C95.528 4.704 94.392 3.552 92.664 3.552 91.304 3.552 90.664 4.272 90.312 5.088L90.248 5.088 90.248 3.744 88.968 3.744 88.968 12 90.248 12ZM99.848 12 99.848 6.272C99.848 5.184 100.872 4.688 101.896 4.688 103.16 4.688 103.848 5.424 103.848 6.928L103.848 12 105.128 12 105.128 6.704C105.128 4.704 103.992 3.552 102.264 3.552 100.904 3.552 100.264 4.272 99.912 5.088L99.848 5.088 99.848 3.744 98.568 3.744 98.568 12 99.848 12ZM110.936 12.192C112.296 12.192 112.936 11.472 113.288 10.656L113.352 10.656 113.352 12 114.632 12 114.632 3.744 113.352 3.744 113.352 9.472C113.352 10.56 112.328 11.056 111.304 11.056 110.04 11.056 109.352 10.32 109.352 8.816L109.352 3.744 108.072 3.744 108.072 9.04C108.072 11.04 109.208 12.192 110.936 12.192ZM120.088 12.192C121.432 12.192 122.216 11.6 122.568 10.656L122.648 10.656C122.744 11.424 123.128 12 124.12 12L125 12 125 10.88 123.848 10.88 123.848 6.336C123.848 4.592 122.616 3.552 120.68 3.552 119 3.552 117.944 4.352 117.528 5.216L118.392 5.856C118.824 5.104 119.496 4.64 120.6 4.64 121.848 4.64 122.568 5.264 122.568 6.464L122.568 7.28 120.808 7.28C118.328 7.28 117.256 8.16 117.256 9.68 117.256 11.232 118.36 12.192 120.088 12.192ZM120.312 11.12C119.256 11.12 118.6 10.672 118.6 9.824L118.6 9.488C118.6 8.688 119.288 8.24 120.808 8.24L122.568 8.24 122.568 9.6C122.568 10.448 121.624 11.12 120.312 11.12ZM134.12 12 134.12 10.912 131.24 10.912 131.24 0.16 127.08 0.16 127.08 1.248 129.96 1.248 129.96 10.912 127.08 10.912 127.08 12 134.12 12Z" id="PremiumAnnual"/><path d="M6.656 48.784 6.656 47.152C8.816 46.976 10.032 45.776 10.032 43.92 10.032 42.416 9.312 41.168 7.12 40.8L6.64 40.72 6.64 36.8C7.696 36.912 8.4 37.392 8.976 38.16L9.984 37.44C9.184 36.352 8.128 35.744 6.656 35.632L6.656 34 5.664 34 5.664 35.632C3.648 35.776 2.4 36.864 2.4 38.656 2.4 40.112 3.104 41.392 5.312 41.76L5.68 41.824 5.68 46C4.56 45.888 3.744 45.36 2.976 44.4L2 45.2C2.768 46.272 3.888 47.04 5.664 47.152L5.664 48.784 6.656 48.784ZM5.68 40.56C4.256 40.272 3.696 39.696 3.696 38.656 3.696 37.552 4.416 36.912 5.68 36.784L5.68 40.56ZM6.64 45.984 6.64 41.984C8.128 42.24 8.736 42.8 8.736 43.936 8.736 45.104 7.984 45.84 6.64 45.984ZM19.648 46.976 19.648 45.808 16.704 45.808 16.704 35.808 14.608 35.808 11.648 38.576 12.432 39.424 15.248 36.8 15.36 36.8 15.36 45.808 12.16 45.808 12.16 46.976 19.648 46.976ZM28.992 46.976 28.992 45.808 22.928 45.808 26.048 43.088C27.536 41.792 28.544 40.544 28.544 38.848 28.544 36.96 27.296 35.616 25.072 35.616 22.88 35.616 21.872 36.928 21.44 38.24L22.64 38.688C22.992 37.536 23.68 36.784 25.04 36.784 26.416 36.784 27.136 37.552 27.136 38.896L27.136 39.088C27.136 40.224 26.352 41.264 25.264 42.24L21.536 45.6 21.536 46.976 28.992 46.976ZM34.8 47.168C37.52 47.168 38.704 45.04 38.704 41.392 38.704 37.744 37.52 35.616 34.8 35.616 32.08 35.616 30.896 37.744 30.896 41.392 30.896 45.04 32.08 47.168 34.8 47.168ZM34.8 46C33.008 46 32.288 44.544 32.288 42.304L32.288 40.48C32.288 38.24 33.008 36.784 34.8 36.784 36.592 36.784 37.312 38.24 37.312 40.48L37.312 42.304C37.312 44.544 36.592 46 34.8 46ZM34.8 42.336C35.536 42.336 35.792 42 35.792 41.568L35.792 41.216C35.792 40.784 35.536 40.448 34.8 40.448 34.064 40.448 33.808 40.784 33.808 41.216L33.808 41.568C33.808 42 34.064 42.336 34.8 42.336ZM44.4 47.168C47.12 47.168 48.304 45.04 48.304 41.392 48.304 37.744 47.12 35.616 44.4 35.616 41.68 35.616 40.496 37.744 40.496 41.392 40.496 45.04 41.68 47.168 44.4 47.168ZM44.4 46C42.608 46 41.888 44.544 41.888 42.304L41.888 40.48C41.888 38.24 42.608 36.784 44.4 36.784 46.192 36.784 46.912 38.24 46.912 40.48L46.912 42.304C46.912 44.544 46.192 46 44.4 46ZM44.4 42.336C45.136 42.336 45.392 42 45.392 41.568L45.392 41.216C45.392 40.784 45.136 40.448 44.4 40.448 43.664 40.448 43.408 40.784 43.408 41.216L43.408 41.568C43.408 42 43.664 42.336 44.4 42.336ZM54 47.168C56.72 47.168 57.904 45.04 57.904 41.392 57.904 37.744 56.72 35.616 54 35.616 51.28 35.616 50.096 37.744 50.096 41.392 50.096 45.04 51.28 47.168 54 47.168ZM54 46C52.208 46 51.488 44.544 51.488 42.304L51.488 40.48C51.488 38.24 52.208 36.784 54 36.784 55.792 36.784 56.512 38.24 56.512 40.48L56.512 42.304C56.512 44.544 55.792 46 54 46ZM54 42.336C54.736 42.336 54.992 42 54.992 41.568L54.992 41.216C54.992 40.784 54.736 40.448 54 40.448 53.264 40.448 53.008 40.784 53.008 41.216L53.008 41.568C53.008 42 53.264 42.336 54 42.336ZM63.6 47.12C64.464 47.12 64.784 46.704 64.784 46.16L64.784 45.872C64.784 45.328 64.464 44.912 63.6 44.912 62.736 44.912 62.416 45.328 62.416 45.872L62.416 46.16C62.416 46.704 62.736 47.12 63.6 47.12ZM73.2 47.168C75.92 47.168 77.104 45.04 77.104 41.392 77.104 37.744 75.92 35.616 73.2 35.616 70.48 35.616 69.296 37.744 69.296 41.392 69.296 45.04 70.48 47.168 73.2 47.168ZM73.2 46C71.408 46 70.688 44.544 70.688 42.304L70.688 40.48C70.688 38.24 71.408 36.784 73.2 36.784 74.992 36.784 75.712 38.24 75.712 40.48L75.712 42.304C75.712 44.544 74.992 46 73.2 46ZM73.2 42.336C73.936 42.336 74.192 42 74.192 41.568L74.192 41.216C74.192 40.784 73.936 40.448 73.2 40.448 72.464 40.448 72.208 40.784 72.208 41.216L72.208 41.568C72.208 42 72.464 42.336 73.2 42.336ZM80.592 49.184 86.16 34.816 85.008 34.816 79.44 49.184 80.592 49.184ZM90.144 50.176C91.392 50.176 91.872 49.728 92.256 48.784L96.352 38.72 95.072 38.72 93.68 42.176 92.448 45.312 92.384 45.312 91.152 42.176 89.76 38.72 88.448 38.72 91.776 46.816 90.848 49.088 88.928 49.088 88.928 50.176 90.144 50.176ZM102.144 47.168C103.776 47.168 104.96 46.368 105.456 45.264L104.512 44.624C104.08 45.52 103.248 46.064 102.144 46.064 100.592 46.064 99.616 45.008 99.616 43.552L99.616 43.168 105.728 43.168 105.728 42.56C105.728 40.224 104.288 38.528 102.064 38.528 99.824 38.528 98.272 40.224 98.272 42.864 98.272 45.472 99.776 47.168 102.144 47.168ZM104.352 42.208 99.616 42.208 99.616 42.096C99.616 40.656 100.656 39.584 102.064 39.584 103.424 39.584 104.352 40.576 104.352 42.032L104.352 42.208ZM110.688 47.168C112.032 47.168 112.816 46.576 113.168 45.632L113.248 45.632C113.344 46.4 113.728 46.976 114.72 46.976L115.6 46.976 115.6 45.856 114.448 45.856 114.448 41.312C114.448 39.568 113.216 38.528 111.28 38.528 109.6 38.528 108.544 39.328 108.128 40.192L108.992 40.832C109.424 40.08 110.096 39.616 111.2 39.616 112.448 39.616 113.168 40.24 113.168 41.44L113.168 42.256 111.408 42.256C108.928 42.256 107.856 43.136 107.856 44.656 107.856 46.208 108.96 47.168 110.688 47.168ZM110.912 46.096C109.856 46.096 109.2 45.648 109.2 44.8L109.2 44.464C109.2 43.664 109.888 43.216 111.408 43.216L113.168 43.216 113.168 44.576C113.168 45.424 112.224 46.096 110.912 46.096ZM124.528 46.976 124.528 45.888 121.328 45.888 121.328 42.32C121.328 41.04 122.176 40 123.792 40L125.344 40 125.344 38.72 124.192 38.72C122.464 38.72 121.728 39.712 121.408 40.8L121.328 40.8 121.328 38.72 117.632 38.72 117.632 39.808 120.048 39.808 120.048 45.888 117.632 45.888 117.632 46.976 124.528 46.976Z" id="$12000.0/year"/></g><g id="Group-58" transform="translate(36 0)"><use width="100%" height="100%" xlink:href="#path-13" id="Rectangle" stroke="#B6C8DE" stroke-width="2" stroke-dasharray="3 3" fill="#FFFFFF" mask="url(#mask-14)"></use><path d="M19.9865 160.867 19.9865 155.048 23.2716 155.048 23.2716 153.099 14 153.099 14 155.048 17.2753 155.048 17.2753 160.867 19.9865 160.867ZM26.349 160.965C28.1796 160.965 29.5154 160.461 30.1388 159.59 30.4356 159.194 30.594 158.7 30.594 158.116 30.594 157.542 30.4356 157.037 30.1289 156.622 29.5055 155.81 28.2587 155.256 26.3589 155.256 24.3898 155.256 23.1727 155.82 22.5493 156.661 22.2426 157.047 22.0842 157.572 22.0842 158.116 22.0842 158.69 22.2426 159.194 22.5295 159.58 23.143 160.431 24.3601 160.965 26.349 160.965ZM26.3688 159.303C25.5871 159.303 25.0132 159.105 24.7757 158.759 24.6569 158.591 24.6075 158.363 24.6075 158.126 24.6075 157.898 24.6668 157.67 24.8153 157.492 25.0626 157.166 25.5772 156.958 26.3688 156.958 27.1505 156.958 27.6749 157.166 27.9124 157.482 28.0509 157.651 28.1103 157.888 28.1103 158.126 28.1103 158.363 28.041 158.601 27.9223 158.769 27.6848 159.115 27.1406 159.303 26.3688 159.303ZM34.0572 160.867 34.0572 159.372 34.8488 158.798 36.5409 160.867 39.4401 160.867 36.6695 157.552 39.1631 155.424 36.3331 155.424 34.0473 157.186 34.0473 153 31.5439 153 31.5439 160.867 34.0572 160.867ZM44.2194 162.648 48.1181 155.424 45.5058 155.424C45.5058 155.474 43.8434 158.729 43.8434 158.769 43.8335 158.729 42.0722 155.464 42.0722 155.424L39.4104 155.424 42.4779 160.916 41.5082 162.648 44.2194 162.648ZM52.3432 160.965C54.1738 160.965 55.5097 160.461 56.133 159.59 56.4299 159.194 56.5882 158.7 56.5882 158.116 56.5882 157.542 56.4299 157.037 56.1231 156.622 55.4998 155.81 54.253 155.256 52.3531 155.256 50.384 155.256 49.1669 155.82 48.5435 156.661 48.2368 157.047 48.0785 157.572 48.0785 158.116 48.0785 158.69 48.2368 159.194 48.5238 159.58 49.1373 160.431 50.3543 160.965 52.3432 160.965ZM52.363 159.303C51.5813 159.303 51.0074 159.105 50.7699 158.759 50.6512 158.591 50.6017 158.363 50.6017 158.126 50.6017 157.898 50.6611 157.67 50.8095 157.492 51.0569 157.166 51.5714 156.958 52.363 156.958 53.1447 156.958 53.6692 157.166 53.9067 157.482 54.0452 157.651 54.1046 157.888 54.1046 158.126 54.1046 158.363 54.0353 158.601 53.9165 158.769 53.6791 159.115 53.1348 159.303 52.363 159.303ZM18.7793 172.284C20.6791 172.284 21.5895 171.621 22.0249 171.097L22.0842 172.175 23.143 172.175C23.143 172.141 23.1355 171.208 23.1336 170.322L23.1331 167.831 23.1331 167.831 18.4726 167.831 18.4726 168.93 21.9754 168.93C21.9754 170.364 20.7781 171.186 18.9574 171.186 16.8795 171.186 15.7415 170.295 15.7415 168.296 15.7415 166.347 16.6914 165.387 19.0267 165.387 20.9562 165.387 21.8468 166.159 21.8863 167.089L23.0935 167.089C23.0935 165.635 21.916 164.289 18.9772 164.289 16.0384 164.289 14.4849 165.763 14.4849 168.296 14.4849 170.889 16.1571 172.284 18.7793 172.284ZM27.5463 172.284C28.5655 172.284 29.6836 172.086 30.218 171.304L30.218 171.304 30.2575 172.175 31.3856 172.175C31.368 172.158 31.3504 172.023 31.3467 171.395L31.346 166.733 30.1883 166.733 30.1883 169.86C30.1883 170.701 29.3175 171.275 28.0213 171.275 26.8437 171.275 26.0521 170.889 26.0521 169.8 26.0521 167.465 26.0423 166.733 26.0126 166.733L26.0126 166.733 24.8252 166.733C24.8647 166.763 24.8746 166.852 24.8845 170.216 24.8845 171.631 25.8839 172.284 27.5463 172.284ZM34.3541 172.175 34.3541 169.167C34.3541 168.178 35.4326 167.653 36.5607 167.653 37.8668 167.653 38.5001 168.158 38.5001 169.137L38.5006 170.06C38.5033 171.961 38.5176 172.165 38.5743 172.175L39.7073 172.175C39.6677 172.126 39.6578 172.076 39.6578 168.89 39.6578 167.604 38.9652 166.594 37.0158 166.594 35.8878 166.594 34.7103 166.921 34.3145 167.811L34.3145 166.733 33.1964 166.733 33.1964 172.175 34.3541 172.175ZM44.5262 172.284C46.8812 172.284 47.7915 171.671 47.7915 170.562 47.7915 169.563 47.1385 169.088 45.298 168.949 45.011 168.93 44.2194 168.85 43.9226 168.831 42.5076 168.702 42.2305 168.554 42.2305 168.187 42.2305 167.811 42.567 167.554 44.2293 167.554 45.5948 167.554 46.149 167.772 46.3172 168.039 46.3765 168.128 46.3864 168.277 46.3864 168.336L47.5244 168.336C47.5244 168.237 47.5046 167.99 47.4353 167.802 47.089 166.931 46.0995 166.575 44.2095 166.575 42.1118 166.575 41.1223 167.208 41.1223 168.187 41.1223 169.127 41.7556 169.593 43.4773 169.751 43.7643 169.781 44.5262 169.86 44.7834 169.88 46.2875 169.998 46.6833 170.147 46.6833 170.612 46.6833 171.047 46.2776 171.334 44.546 171.334 43.0914 171.334 42.4086 171.186 42.2305 170.829 42.181 170.711 42.1613 170.582 42.1613 170.503L41.0233 170.503C41.0233 170.641 41.0431 170.8 41.0827 170.968 41.3499 171.918 42.2998 172.284 44.5262 172.284Z" id="TokyoGuns" fill="#00000A" fill-rule="nonzero"/><path d="M26.506 10.696 27.962 10.528 30.44 1.666C30.608 1.62867 30.7807 1.57733 30.958 1.512 31.1353 1.44667 31.3033 1.36267 31.462 1.26L31.462 1.26 31.462 0.728 27.934 0.728 27.934 1.26C28.3447 1.47467 28.7367 1.61 29.11 1.666L29.11 1.666 27.99 6.44 27.668 8.288 27.64 8.288 27.164 6.468 25.176 0.728 24.35 0.728 22.488 6.538 21.998 8.428 21.97 8.428 21.676 6.608 20.374 1.666C20.5887 1.61933 20.7963 1.561 20.997 1.491 21.1977 1.421 21.3773 1.344 21.536 1.26L21.536 1.26 21.536 0.728 17 0.728 17 1.26C17.1493 1.35333 17.308 1.435 17.476 1.505 17.644 1.575 17.826 1.62867 18.022 1.666L18.022 1.666 20.752 10.696 22.222 10.528 24.336 3.92 26.506 10.696ZM33.386 2.268C33.7407 2.268 34.03 2.17467 34.254 1.988 34.478 1.80133 34.59 1.54933 34.59 1.232 34.59 0.905333 34.478 0.648667 34.254 0.462 34.03 0.275333 33.7407 0.182 33.386 0.182 33.0313 0.182 32.742 0.275333 32.518 0.462 32.294 0.648667 32.182 0.905333 32.182 1.232 32.182 1.54933 32.294 1.80133 32.518 1.988 32.742 2.17467 33.0313 2.268 33.386 2.268ZM35.36 10.528 35.36 9.982C35.2293 9.90733 35.0893 9.84433 34.94 9.793 34.7907 9.74167 34.6227 9.69267 34.436 9.646L34.436 9.646 34.436 3.36 33.96 3.36C33.792 3.37867 33.596 3.40433 33.372 3.437 33.148 3.46967 32.9193 3.507 32.686 3.549 32.4527 3.591 32.231 3.64 32.021 3.696 31.811 3.752 31.636 3.808 31.496 3.864L31.496 3.864 31.496 4.41 32.42 4.522 32.42 9.646C32.2427 9.69267 32.0793 9.74167 31.93 9.793 31.7807 9.84433 31.636 9.90733 31.496 9.982L31.496 9.982 31.496 10.528 35.36 10.528ZM39.342 10.528 39.342 9.982C39.2113 9.898 39.0877 9.83033 38.971 9.779 38.8543 9.72767 38.7213 9.68333 38.572 9.646L38.572 9.646 38.572 5.754C38.7027 5.362 38.8963 5.05167 39.153 4.823 39.4097 4.59433 39.7153 4.48 40.07 4.48 40.4993 4.48 40.798 4.64567 40.966 4.977 41.134 5.30833 41.218 5.768 41.218 6.356L41.218 6.356 41.218 9.646C41.0593 9.702 40.9217 9.75567 40.805 9.807 40.6883 9.85833 40.5693 9.91667 40.448 9.982L40.448 9.982 40.448 10.528 44.158 10.528 44.158 9.982C43.9153 9.82333 43.6073 9.71133 43.234 9.646L43.234 9.646 43.234 6.3C43.234 5.72133 43.1803 5.243 43.073 4.865 42.9657 4.487 42.8117 4.186 42.611 3.962 42.4103 3.738 42.1653 3.58167 41.876 3.493 41.5867 3.40433 41.26 3.36 40.896 3.36 40.336 3.36 39.86 3.50233 39.468 3.787 39.076 4.07167 38.782 4.41 38.586 4.802L38.586 4.802 38.572 4.802 38.572 3.36 38.096 3.36C37.9 3.37867 37.683 3.40433 37.445 3.437 37.207 3.46967 36.9737 3.50933 36.745 3.556 36.5163 3.60267 36.304 3.65167 36.108 3.703 35.912 3.75433 35.7533 3.808 35.632 3.864L35.632 3.864 35.632 4.41 36.556 4.522 36.556 9.646C36.1733 9.74867 35.8653 9.86067 35.632 9.982L35.632 9.982 35.632 10.528 39.342 10.528ZM47.188 10.696C47.4307 10.696 47.6593 10.654 47.874 10.57 48.0887 10.486 48.28 10.3717 48.448 10.227 48.616 10.0823 48.7607 9.91667 48.882 9.73 49.0033 9.54333 49.0873 9.34733 49.134 9.142L49.134 9.142 49.19 9.142 49.316 10.668 49.792 10.668C49.932 10.6493 50.107 10.6237 50.317 10.591 50.527 10.5583 50.744 10.5187 50.968 10.472 51.192 10.4253 51.4067 10.374 51.612 10.318 51.8173 10.262 51.9853 10.2013 52.116 10.136L52.116 10.136 52.116 9.646 51.192 9.534 51.192 0 50.716 0C50.5573 0.028 50.3567 0.0606667 50.114 0.098 49.8713 0.135333 49.624 0.175 49.372 0.217 49.12 0.259 48.8797 0.303333 48.651 0.35 48.4223 0.396667 48.2427 0.448 48.112 0.504L48.112 0.504 48.112 1.05 49.176 1.162 49.176 3.626C49.064 3.58867 48.9637 3.55367 48.875 3.521 48.7863 3.48833 48.693 3.465 48.595 3.451 48.497 3.437 48.3897 3.42533 48.273 3.416 48.1563 3.40667 48.014 3.402 47.846 3.402 47.3233 3.402 46.8473 3.48133 46.418 3.64 45.9887 3.79867 45.6223 4.03667 45.319 4.354 45.0157 4.67133 44.78 5.061 44.612 5.523 44.444 5.985 44.36 6.524 44.36 7.14 44.36 8.344 44.6003 9.23767 45.081 9.821 45.5617 10.4043 46.264 10.696 47.188 10.696ZM47.86 9.576C47.384 9.576 47.0433 9.34733 46.838 8.89 46.6327 8.43267 46.53 7.826 46.53 7.07 46.53 6.13667 46.6467 5.425 46.88 4.935 47.1133 4.445 47.5007 4.2 48.042 4.2 48.3127 4.2 48.539 4.22333 48.721 4.27 48.903 4.31667 49.0547 4.37733 49.176 4.452L49.176 4.452 49.176 8.218C49.0733 8.71267 48.91 9.06267 48.686 9.268 48.462 9.47333 48.1867 9.576 47.86 9.576ZM33.438 22.696C34.11 22.696 34.7073 22.577 35.23 22.339 35.7527 22.101 36.1587 21.8327 36.448 21.534 36.6907 21.7767 36.938 21.975 37.19 22.129 37.442 22.283 37.6613 22.416 37.848 22.528L37.848 22.528 40.284 22.528 40.284 21.982 39.57 21.646C39.2433 21.4593 38.912 21.254 38.576 21.03 38.24 20.806 37.9087 20.5493 37.582 20.26 37.722 20.1107 37.862 19.9007 38.002 19.63 38.142 19.3593 38.275 19.0513 38.401 18.706 38.527 18.3607 38.6367 17.992 38.73 17.6 38.8233 17.208 38.8933 16.8113 38.94 16.41 39.304 16.3447 39.612 16.2327 39.864 16.074L39.864 16.074 39.864 15.528 36.672 15.528 36.672 16.074C36.7933 16.158 36.91 16.228 37.022 16.284 37.134 16.34 37.2647 16.382 37.414 16.41 37.4887 16.718 37.5167 17.0447 37.498 17.39 37.4793 17.7353 37.4373 18.062 37.372 18.37 37.3067 18.678 37.2273 18.9533 37.134 19.196 37.0407 19.4387 36.9567 19.6113 36.882 19.714 35.762 18.7153 34.88 17.7727 34.236 16.886 34.46 16.7273 34.6723 16.5523 34.873 16.361 35.0737 16.1697 35.251 15.9667 35.405 15.752 35.559 15.5373 35.6827 15.3087 35.776 15.066 35.8693 14.8233 35.916 14.5667 35.916 14.296 35.916 13.736 35.706 13.3067 35.286 13.008 34.866 12.7093 34.32 12.56 33.648 12.56 33.256 12.56 32.913 12.616 32.619 12.728 32.325 12.84 32.0777 12.987 31.877 13.169 31.6763 13.351 31.527 13.5587 31.429 13.792 31.331 14.0253 31.282 14.2587 31.282 14.492 31.282 14.8373 31.366 15.1873 31.534 15.542 31.702 15.8967 31.9027 16.2 32.136 16.452 31.94 16.564 31.709 16.7203 31.443 16.921 31.177 17.1217 30.9273 17.362 30.694 17.642 30.4607 17.922 30.2623 18.2417 30.099 18.601 29.9357 18.9603 29.854 19.3547 29.854 19.784 29.854 20.1387 29.924 20.4887 30.064 20.834 30.204 21.1793 30.4187 21.4897 30.708 21.765 30.9973 22.0403 31.3683 22.2643 31.821 22.437 32.2737 22.6097 32.8127 22.696 33.438 22.696ZM33.83 16.256C33.7273 16.1347 33.6223 15.9947 33.515 15.836 33.4077 15.6773 33.3097 15.514 33.221 15.346 33.1323 15.178 33.06 15.01 33.004 14.842 32.948 14.674 32.92 14.52 32.92 14.38 32.92 14.1093 32.9923 13.8667 33.137 13.652 33.2817 13.4373 33.508 13.33 33.816 13.33 34.1147 13.33 34.3363 13.421 34.481 13.603 34.6257 13.785 34.7073 14.0067 34.726 14.268 34.7447 14.66 34.6793 15.0287 34.53 15.374 34.3807 15.7193 34.1473 16.0133 33.83 16.256ZM34.18 21.646C33.8627 21.646 33.5687 21.5877 33.298 21.471 33.0273 21.3543 32.7917 21.191 32.591 20.981 32.3903 20.771 32.234 20.5213 32.122 20.232 32.01 19.9427 31.954 19.6253 31.954 19.28 31.954 18.8693 32.0147 18.5123 32.136 18.209 32.2573 17.9057 32.4533 17.586 32.724 17.25 32.8547 17.474 33.032 17.7447 33.256 18.062 33.48 18.3793 33.7297 18.706 34.005 19.042 34.2803 19.378 34.572 19.7093 34.88 20.036 35.188 20.3627 35.4913 20.652 35.79 20.904 35.5847 21.1653 35.335 21.3543 35.041 21.471 34.747 21.5877 34.46 21.646 34.18 21.646ZM23.062 34.696C24.2847 34.696 25.211 34.4417 25.841 33.933 26.471 33.4243 26.786 32.7033 26.786 31.77 26.786 31.2567 26.674 30.825 26.45 30.475 26.226 30.125 25.946 29.8193 25.61 29.558 25.274 29.2967 24.9077 29.0657 24.511 28.865 24.1143 28.6643 23.748 28.4613 23.412 28.256 23.076 28.0507 22.796 27.8243 22.572 27.577 22.348 27.3297 22.236 27.0287 22.236 26.674 22.236 26.282 22.3713 25.9833 22.642 25.778 22.9127 25.5727 23.244 25.47 23.636 25.47 23.8693 25.47 24.0957 25.4933 24.315 25.54 24.5343 25.5867 24.7 25.638 24.812 25.694L24.812 25.694 25.456 27.612 26.03 27.612C26.0673 27.472 26.107 27.297 26.149 27.087 26.191 26.877 26.2307 26.653 26.268 26.415 26.3053 26.177 26.3357 25.9367 26.359 25.694 26.3823 25.4513 26.3987 25.2367 26.408 25.05 26.016 24.882 25.575 24.7583 25.085 24.679 24.595 24.5997 24.0653 24.56 23.496 24.56 23.0293 24.56 22.5953 24.6137 22.194 24.721 21.7927 24.8283 21.445 24.9917 21.151 25.211 20.857 25.4303 20.626 25.708 20.458 26.044 20.29 26.38 20.206 26.7767 20.206 27.234 20.206 27.766 20.3157 28.2117 20.535 28.571 20.7543 28.9303 21.032 29.2407 21.368 29.502 21.704 29.7633 22.0633 29.9897 22.446 30.181 22.8287 30.3723 23.188 30.566 23.524 30.762 23.86 30.958 24.1377 31.1727 24.357 31.406 24.5763 31.6393 24.686 31.9287 24.686 32.274 24.686 32.75 24.5157 33.121 24.175 33.387 23.8343 33.653 23.4073 33.786 22.894 33.786 22.586 33.786 22.3387 33.7417 22.152 33.653 21.9653 33.5643 21.8207 33.4687 21.718 33.366L21.718 33.366 21.144 31.308 20.57 31.308C20.5233 31.476 20.4767 31.672 20.43 31.896 20.3833 32.12 20.339 32.3557 20.297 32.603 20.255 32.8503 20.2153 33.0977 20.178 33.345 20.1407 33.5923 20.1173 33.8233 20.108 34.038 20.2107 34.122 20.367 34.2013 20.577 34.276 20.787 34.3507 21.0273 34.4207 21.298 34.486 21.5687 34.5513 21.8557 34.6027 22.159 34.64 22.4623 34.6773 22.7633 34.696 23.062 34.696ZM31.09 34.696C31.6687 34.696 32.189 34.612 32.651 34.444 33.113 34.276 33.505 34.0333 33.827 33.716 34.149 33.3987 34.394 33.0137 34.562 32.561 34.73 32.1083 34.814 31.5973 34.814 31.028 34.814 30.496 34.744 30.0037 34.604 29.551 34.464 29.0983 34.2423 28.711 33.939 28.389 33.6357 28.067 33.2483 27.815 32.777 27.633 32.3057 27.451 31.7433 27.36 31.09 27.36 30.5113 27.36 29.9933 27.444 29.536 27.612 29.0787 27.78 28.689 28.0227 28.367 28.34 28.045 28.6573 27.7977 29.0423 27.625 29.495 27.4523 29.9477 27.366 30.4587 27.366 31.028 27.366 31.56 27.4407 32.0523 27.59 32.505 27.7393 32.9577 27.968 33.345 28.276 33.667 28.584 33.989 28.9713 34.241 29.438 34.423 29.9047 34.605 30.4553 34.696 31.09 34.696ZM31.286 33.842C30.9313 33.842 30.642 33.7743 30.418 33.639 30.194 33.5037 30.0167 33.3147 29.886 33.072 29.7553 32.8293 29.6643 32.533 29.613 32.183 29.5617 31.833 29.536 31.448 29.536 31.028 29.536 30.5053 29.5663 30.0643 29.627 29.705 29.6877 29.3457 29.7787 29.0563 29.9 28.837 30.0213 28.6177 30.1707 28.459 30.348 28.361 30.5253 28.263 30.7353 28.214 30.978 28.214 31.3047 28.214 31.5753 28.2817 31.79 28.417 32.0047 28.5523 32.175 28.7413 32.301 28.984 32.427 29.2267 32.5157 29.5207 32.567 29.866 32.6183 30.2113 32.644 30.5987 32.644 31.028 32.644 31.5507 32.6137 31.9917 32.553 32.351 32.4923 32.7103 32.4013 32.9997 32.28 33.219 32.1587 33.4383 32.014 33.597 31.846 33.695 31.678 33.793 31.4913 33.842 31.286 33.842ZM38.88 34.528 38.88 33.982C38.7493 33.898 38.6257 33.8303 38.509 33.779 38.3923 33.7277 38.2593 33.6833 38.11 33.646L38.11 33.646 38.11 29.754C38.2407 29.362 38.4343 29.0517 38.691 28.823 38.9477 28.5943 39.2533 28.48 39.608 28.48 40.0373 28.48 40.336 28.6457 40.504 28.977 40.672 29.3083 40.756 29.768 40.756 30.356L40.756 30.356 40.756 33.646C40.5973 33.702 40.4597 33.7557 40.343 33.807 40.2263 33.8583 40.1073 33.9167 39.986 33.982L39.986 33.982 39.986 34.528 43.696 34.528 43.696 33.982C43.4533 33.8233 43.1453 33.7113 42.772 33.646L42.772 33.646 42.772 30.3C42.772 29.7213 42.7183 29.243 42.611 28.865 42.5037 28.487 42.3497 28.186 42.149 27.962 41.9483 27.738 41.7033 27.5817 41.414 27.493 41.1247 27.4043 40.798 27.36 40.434 27.36 39.874 27.36 39.398 27.5023 39.006 27.787 38.614 28.0717 38.32 28.41 38.124 28.802L38.124 28.802 38.11 28.802 38.11 27.36 37.634 27.36C37.438 27.3787 37.221 27.4043 36.983 27.437 36.745 27.4697 36.5117 27.5093 36.283 27.556 36.0543 27.6027 35.842 27.6517 35.646 27.703 35.45 27.7543 35.2913 27.808 35.17 27.864L35.17 27.864 35.17 28.41 36.094 28.522 36.094 33.646C35.7113 33.7487 35.4033 33.8607 35.17 33.982L35.17 33.982 35.17 34.528 38.88 34.528ZM46.488 34.696C47.3653 34.696 48.0653 34.5117 48.588 34.143 49.1107 33.7743 49.372 33.268 49.372 32.624 49.372 32.26 49.2857 31.9473 49.113 31.686 48.9403 31.4247 48.7257 31.1983 48.469 31.007 48.2123 30.8157 47.9323 30.6453 47.629 30.496 47.3257 30.3467 47.0457 30.1973 46.789 30.048 46.5323 29.8987 46.3177 29.7377 46.145 29.565 45.9723 29.3923 45.886 29.1893 45.886 28.956 45.886 28.7507 45.9583 28.5663 46.103 28.403 46.2477 28.2397 46.46 28.158 46.74 28.158 46.8893 28.158 47.0247 28.165 47.146 28.179 47.2673 28.193 47.384 28.2233 47.496 28.27L47.496 28.27 48.084 29.698 48.56 29.698C48.6627 29.418 48.77 29.1077 48.882 28.767 48.994 28.4263 49.0687 28.1067 49.106 27.808 48.7793 27.668 48.399 27.5583 47.965 27.479 47.531 27.3997 47.062 27.36 46.558 27.36 46.194 27.36 45.8557 27.4043 45.543 27.493 45.2303 27.5817 44.962 27.7053 44.738 27.864 44.514 28.0227 44.3367 28.2163 44.206 28.445 44.0753 28.6737 44.01 28.928 44.01 29.208 44.01 29.6 44.0963 29.9313 44.269 30.202 44.4417 30.4727 44.6563 30.7083 44.913 30.909 45.1697 31.1097 45.4497 31.2847 45.753 31.434 46.0563 31.5833 46.3363 31.7327 46.593 31.882 46.8497 32.0313 47.0643 32.1947 47.237 32.372 47.4097 32.5493 47.496 32.7593 47.496 33.002 47.496 33.282 47.384 33.5013 47.16 33.66 46.936 33.8187 46.6887 33.898 46.418 33.898 46.306 33.898 46.187 33.891 46.061 33.877 45.935 33.863 45.8207 33.8187 45.718 33.744L45.718 33.744 45.032 32.218 44.556 32.218C44.3973 32.4887 44.248 32.7967 44.108 33.142 43.968 33.4873 43.8887 33.828 43.87 34.164 44.2153 34.332 44.626 34.4627 45.102 34.556 45.578 34.6493 46.04 34.696 46.488 34.696Z" id="Wind&amp;Sons" fill="#00000A" fill-rule="nonzero"/></g></g></g></g></g></g><rect x="0" y="321" width="555" height="67" id="Rectangle" fill="url(#linearGradient-15)" mask="url(#mask-2)"/></g></g></svg>